<svg xmlns="http://www.w3.org/2000/svg" version="1.1" xmlns:xlink="http://www.w3.org/1999/xlink" xmlns:svgjs="http://svgjs.com/svgjs" id="Pattern1401SvgRootPreview" width="100%" height="100%"><defs><pattern x="0" y="0" width="1" height="1" patternUnits="userSpaceOnUse" id="Pattern1401Layer1" patternTransform="matrix(0.2698412698412698,0,0,0.2698412698412698,0,0)"><g id="PatternRootContent1"><g id="Pattern1401Layer1background"><rect width="1" height="1" id="Pattern1401Background1" class="color_1 fill_color_1" fill="#fffff0"></rect></g></g></pattern><pattern x="0" y="0" width="126" height="220" patternUnits="userSpaceOnUse" id="Pattern1401Layer2" patternTransform="matrix(0.1349206349206349,0,0,0.1349206349206349,0,0)"><g id="PatternRootContent2"><g id="Pattern1401Layer2Element4"><use xlink:href="#Pattern1401Element4" x="49.220375061035156" y="-121.49311065673828" transform="translate(126, -55) scale(1) translate(-126, 55) rotate(0, 126, -55)"></use><use xlink:href="#Pattern1401Element4" x="-76.77962493896484" y="-121.49311065673828" transform="translate(0, -55) scale(1) translate(0, 55) rotate(0, 0, -55)"></use><use xlink:href="#Pattern1401Element4" x="-13.779624938964844" y="-11.493110656738281" transform="translate(63, 55) scale(1) translate(-63, -55) rotate(0, 63, 55)"></use><use xlink:href="#Pattern1401Element4" x="-139.77962493896484" y="-11.493110656738281" transform="translate(-63, 55) scale(1) translate(63, -55) rotate(0, -63, 55)"></use><use xlink:href="#Pattern1401Element4" x="112.22037506103516" y="-11.493110656738281" transform="translate(189, 55) scale(1) translate(-189, -55) rotate(0, 189, 55)"></use><use xlink:href="#Pattern1401Element4" x="49.220375061035156" y="98.50688934326172" transform="translate(126, 165) scale(1) translate(-126, -165) rotate(0, 126, 165)"></use><use xlink:href="#Pattern1401Element4" x="-76.77962493896484" y="98.50688934326172" transform="translate(0, 165) scale(1) translate(0, -165) rotate(0, 0, 165)"></use><use xlink:href="#Pattern1401Element4" x="-13.779624938964844" y="208.50688934326172" transform="translate(63, 275) scale(1) translate(-63, -275) rotate(0, 63, 275)"></use><use xlink:href="#Pattern1401Element4" x="-13.779624938964844" y="208.50688934326172" transform="translate(63, 275) scale(1) translate(-63, -275) rotate(0, 63, 275)"></use></g></g></pattern><symbol id="Pattern1401Element4"><g class="color_5 fill_color_5" fill="#dddce0"><g><g><path d="M93.78,51.65256881713867L93.78,86.65257263183594L83.78,86.65257263183594L83.78,51.65256881713867L93.78,51.65256881713867Z"></path><path d="M59.78,86.65257263183594L59.78,51.65256881713867L69.78,51.65256881713867L69.78,86.65257263183594L59.78,86.65257263183594Z"></path></g><g><path d="M102.488,125.62500762939453L72.177,108.125L77.177,99.46475219726562L107.488,116.96475219726562L102.488,125.62500762939453Z"></path><path d="M89.177,78.68013763427734L119.488,96.18013763427734L114.488,104.84039306640625L84.177,87.34039306640625L89.177,78.68013763427734Z"></path></g><g><path d="M34.072,96.18013763427734L64.383,78.68013763427734L69.383,87.34039306640625L39.072,104.84039306640625L34.072,96.18013763427734Z"></path><path d="M81.383,108.12500762939453L51.072,125.62500762939453L46.072,116.96475219726562L76.383,99.46475219726562L81.383,108.12500762939453Z"></path></g></g><g><g><path d="M76.916,81.33364868164062L46.605,63.833648681640625L51.605,55.17339324951172L81.916,72.67339324951172L76.916,81.33364868164062Z"></path><path d="M63.605,34.3887825012207L93.916,51.8887825012207L88.916,60.549034118652344L58.605,43.049034118652344L63.605,34.3887825012207Z"></path></g><g><path d="M8.5,51.88877868652344L38.811,34.3886833190918L43.811,43.04893493652344L13.5,60.549034118652344L8.5,51.88877868652344Z"></path><path d="M55.811,63.83354949951172L25.5,81.3336410522461L20.5,72.67339324951172L50.811,55.17329406738281L55.811,63.83354949951172Z"></path></g><g><path d="M68.208,7.361215591430664L68.208,42.36131286621094L58.208,42.36131286621094L58.208,7.361214637756348L68.208,7.361215591430664Z"></path><path d="M34.208,42.36131286621094L34.208,7.3612165451049805L44.208,7.361213684082031L44.208,42.36131286621094L34.208,42.36131286621094Z"></path></g></g><g><g><path d="M59.643,51.88878631591797L89.954,34.38878631591797L94.954,43.049041748046875L64.643,60.549041748046875L59.643,51.88878631591797Z"></path><path d="M106.954,63.833648681640625L76.643,81.33364868164062L71.643,72.67340087890625L101.954,55.173397064208984L106.954,63.833648681640625Z"></path></g><g><path d="M119.351,7.361222267150879L119.351,42.36132049560547L109.351,42.3613166809082L109.351,7.36121940612793L119.351,7.361222267150879Z"></path><path d="M85.351,42.36132049560547L85.351,7.3612213134765625L95.351,7.361222267150879L95.351,42.36132049560547L85.351,42.36132049560547Z"></path></g><g><path d="M128.059,81.33364868164062L97.748,63.83354949951172L102.748,55.17329788208008L133.059,72.67339324951172L128.059,81.33364868164062Z"></path><path d="M114.748,34.38868713378906L145.059,51.88878631591797L140.059,60.549034118652344L109.748,43.04894256591797L114.748,34.38868713378906Z"></path></g></g></g></symbol></defs><rect width="100%" height="100%" id="Pattern1401RctLayer1" fill="url(#Pattern1401Layer1)"></rect><rect width="100%" height="100%" id="Pattern1401RctLayer2" fill="url(#Pattern1401Layer2)"></rect></svg>